<svg width="55" height="56" viewBox="0 0 55 56" fill="none" xmlns="http://www.w3.org/2000/svg">
<path d="M51.1976 12.3967C50.9302 11.554 50.3776 10.7048 49.7818 9.94945C49.1798 9.18616 48.5001 8.47716 47.9393 7.9163L47.9392 7.9162C47.3783 7.35559 46.6693 6.67586 45.9061 6.07387C45.1508 5.47811 44.3018 4.92543 43.4594 4.65797L43.4591 4.65791C43.0122 4.51619 42.4711 4.40975 41.8422 4.5567C41.2185 4.70242 40.5817 5.07971 39.8971 5.7647L39.8965 5.7653L37.1551 8.5163L36.7323 8.94057L37.1558 9.36409L46.474 18.6823L46.8949 19.1031L47.3191 18.6857L50.0928 15.9568L50.0966 15.953C50.7789 15.2696 51.1547 14.6337 51.2996 14.011C51.4457 13.3832 51.3393 12.843 51.1976 12.3967ZM51.1976 12.3967L50.6257 12.5781M51.1976 12.3967C51.1976 12.3966 51.1975 12.3966 51.1975 12.3965L50.6257 12.5781M50.6257 12.5781C50.8754 13.3645 50.9326 14.2665 49.672 15.5291L40.3215 6.18882C41.5866 4.92294 42.4901 4.98008 43.2778 5.22984C44.757 5.69948 46.4043 7.23028 47.515 8.34054C48.6255 9.45123 50.1561 11.0985 50.6257 12.5781ZM33.1798 32.8076L33.1799 32.8076C33.77 32.213 34.7302 32.2093 35.3249 32.7994C35.9193 33.3897 35.9228 34.35 35.3325 34.9447L21.151 49.2322L21.1507 49.2326C20.9342 49.451 20.6561 49.598 20.3537 49.6537L20.3258 49.6589L20.2985 49.6666L3.35533 54.4793L3.51927 55.0565L3.35531 54.4793C3.09619 54.553 2.82215 54.5562 2.56137 54.4888C2.30058 54.4213 2.06246 54.2857 1.8715 54.0957L1.87141 54.0956C1.6804 53.9057 1.54343 53.6683 1.47459 53.4078C1.40575 53.1475 1.4075 52.8734 1.47965 52.614C1.47966 52.6139 1.47967 52.6139 1.47968 52.6139L6.23905 35.5156L6.23911 35.5153C6.30878 35.2647 6.44195 35.0362 6.62574 34.8521L6.62604 34.8518L37.7493 3.62196C37.7495 3.62173 37.7498 3.62148 37.75 3.62124C40.2556 1.11609 42.731 1.24467 44.3771 1.76704C46.0639 2.30242 47.8171 3.50451 50.0843 5.77167C52.3511 8.03848 53.5535 9.79168 54.0888 11.4788L54.0888 11.4789C54.6111 13.1239 54.7393 15.5979 52.2397 18.1001L52.231 18.1084L52.2271 18.1123L42.4168 27.7639L42.4134 27.7674L42.323 27.8577C41.7308 28.45 40.7707 28.45 40.1784 27.8577L29.4344 17.1136L29.0094 16.6887L28.5851 17.1144L10.3312 35.4308L9.90899 35.8544L10.3313 36.2779L19.6289 45.6037L20.0547 46.0308L20.4796 45.6027L33.1798 32.8076ZM35.0157 11.5137L34.5907 11.0887L34.1664 11.5144L31.5737 14.1163L31.1509 14.5405L31.5744 14.964L40.8376 24.2276L41.2584 24.6484L41.6827 24.231L44.3011 21.6549L44.7324 21.2307L44.3046 20.803L35.0157 11.5137ZM9.62227 49.2246L9.87155 49.4751L10.2115 49.3786L16.1645 47.6878L17.1455 47.4092L16.4255 46.687L9.21963 39.4595L8.49277 38.7305L8.2167 39.7223L6.55073 45.7074L6.45706 46.0439L6.70346 46.2915L9.62227 49.2246ZM54.3999 52.9263C54.3999 53.764 53.7211 54.4428 52.8834 54.4428H27.1657C26.3278 54.4428 25.6487 53.7638 25.6487 52.9264C25.6487 52.0887 26.328 51.4094 27.1657 51.4094H52.8834C53.7206 51.4094 54.3999 52.0885 54.3999 52.9263Z" fill="#880015" stroke="white" stroke-width="1.2"/>
</svg>
