<svg width="62" height="56" viewBox="0 0 62 56" fill="none" xmlns="http://www.w3.org/2000/svg">
<path d="M23.9889 10.2573C11.8447 10.2573 2 20.102 2 32.2462C2 36.5035 3.21114 40.4772 5.30588 43.8444L2 53.306L12.7916 51.1727C16.0715 53.1174 19.8994 54.235 23.9889 54.235C36.133 54.235 45.9777 44.3903 45.9777 32.2462C45.9777 20.102 36.1329 10.2573 23.9889 10.2573Z" stroke="#1C8CCB" stroke-width="2.5" stroke-miterlimit="10" stroke-linecap="round" stroke-linejoin="round"/>
<path d="M20.6418 10.5077C24.6633 5.3048 30.9265 2 38.0111 2C50.1553 1.99988 60 11.8446 60 23.9887C60 28.2461 58.7888 32.2198 56.6941 35.5869L60 45.0485L49.2084 42.9153C46.8923 44.2885 44.1227 45.3048 41.3608 45.7509M10.1994 29.6505V34.8414M17.0942 25.8586V38.6331M23.9888 29.6505V34.8414M30.8835 27.6501V36.8416M37.7782 31.0882V33.4036" stroke="#1C8CCB" stroke-width="2.5" stroke-miterlimit="10" stroke-linecap="round" stroke-linejoin="round"/>
</svg>
