<svg width="20" height="20" viewBox="0 0 20 20" fill="none" xmlns="http://www.w3.org/2000/svg">
<path d="M11.9223 1.49819L12.7166 0.703968C13.6552 -0.234656 15.2887 -0.234656 16.2274 0.703968L16.8682 1.34476C17.0993 1.57399 17.2828 1.84673 17.4081 2.14724C17.5333 2.44776 17.5978 2.77009 17.5978 3.09566C17.5978 3.42122 17.5333 3.74355 17.4081 4.04407C17.2828 4.34458 17.0993 4.61732 16.8682 4.84655L16.0739 5.64077L11.9223 1.48916V1.49819ZM10.9657 2.45486L2.74367 10.6769C2.48194 10.9386 2.31949 11.2815 2.29241 11.6516L2.04873 14.296C2.02165 14.6299 2.13898 14.9548 2.37364 15.1985C2.59024 15.4151 2.87002 15.5324 3.16786 15.5324H3.26713L5.91153 15.2887C6.28156 15.2526 6.62452 15.0902 6.88625 14.8285L15.1082 6.60647L10.9566 2.45486H10.9657ZM19.4043 18.4115C19.4043 18.0414 19.0974 17.7346 18.7274 17.7346H0.676893C0.306858 17.7346 0 18.0414 0 18.4115C0 18.7815 0.306858 19.0884 0.676893 19.0884H18.7274C19.0974 19.0884 19.4043 18.7815 19.4043 18.4115Z" fill="white"/>
</svg>
