<svg width="35" height="40" viewBox="0 0 35 40" fill="none" xmlns="http://www.w3.org/2000/svg">
<path d="M17.094 23.7711C14.8882 23.7711 12.8189 22.9121 11.2702 21.3504C9.70856 19.7757 8.86265 17.6935 8.88217 15.4746L8.95374 8.58365C8.95546 8.4122 9.02477 8.24836 9.14662 8.12773C9.26846 8.00711 9.43299 7.93944 9.60445 7.93945H9.61095C9.96884 7.94596 10.2617 8.23878 10.2552 8.59666L10.1836 15.4876C10.1641 17.3551 10.8798 19.112 12.1942 20.433C13.5022 21.7474 15.2395 22.4697 17.1005 22.4697H17.1331C20.8876 22.4501 23.972 19.2617 24.011 15.3575L24.0761 8.73331C24.0778 8.56186 24.1471 8.39802 24.269 8.2774C24.3908 8.15677 24.5553 8.08911 24.7268 8.08911H24.7333C25.0912 8.09562 25.384 8.38844 25.3775 8.74632L25.3124 15.3705C25.2669 19.984 21.5969 23.7515 17.1396 23.7711H17.094Z" fill="#880015"/>
<path d="M17.1525 12.2736C16.8272 12.2736 16.5083 12.2085 16.196 12.0784L9.34409 9.18924C9.1881 9.12434 9.06411 9.00036 8.99922 8.84437L7.45054 5.24598C7.37246 5.06378 7.37897 4.86207 7.47006 4.68638C7.56116 4.51069 7.72384 4.38705 7.91254 4.34801C7.97761 4.335 14.2569 3.01407 16.7556 0.216045C16.8792 0.0728906 17.0614 -0.0117008 17.2501 0.00131321C17.4388 0.00131321 17.6145 0.0859046 17.7382 0.229059C20.1783 3.07914 26.4316 4.53021 26.4966 4.54322C26.5905 4.56508 26.6784 4.60757 26.7538 4.66761C26.8293 4.72765 26.8904 4.80374 26.9327 4.89034C26.9751 4.97694 26.9977 5.0719 26.9988 5.1683C26.9999 5.26471 26.9795 5.36015 26.9391 5.4477L25.3123 9.01355C25.2408 9.16321 25.1171 9.28685 24.961 9.34541L18.0505 12.0914C17.7642 12.215 17.4584 12.2736 17.1525 12.2736ZM10.0924 8.08955L16.7035 10.8746C16.9833 10.9917 17.2957 10.9982 17.5755 10.8876L24.2387 8.23271L25.4295 5.61688C23.7116 5.14837 19.5666 3.84046 17.2306 1.58903C14.8555 3.79491 10.678 5.01823 8.95367 5.4477L10.0924 8.08955Z" fill="#880015"/>
<path d="M17.1786 9.63224L9.56534 9.24182C9.20745 9.2223 8.92765 8.91647 8.94717 8.55858C8.96669 8.2007 9.27903 7.92089 9.63041 7.94042L17.1916 8.33084L24.7007 8.09658C25.0521 8.09658 25.3579 8.36988 25.3709 8.72777C25.3839 9.08565 25.0976 9.38498 24.7397 9.39799L17.1786 9.63224ZM33.7455 40.0006H0.650703C0.292816 40.0006 0 39.7077 0 39.3499V34.2549C0 27.7543 5.28371 22.4706 11.7842 22.4706H22.6184C29.119 22.4706 34.4027 27.7543 34.4027 34.2549V39.3564C34.3962 39.7142 34.1099 40.0006 33.7455 40.0006ZM1.30141 38.6992H33.0948V34.2549C33.0948 28.4766 28.3902 23.772 22.6119 23.772H11.7842C6.00599 23.772 1.30141 28.4766 1.30141 34.2549V38.6992Z" fill="#880015"/>
<path d="M14.4586 30.109C14.3298 30.1097 14.2038 30.0724 14.0961 30.0018C13.9885 29.9312 13.9041 29.8304 13.8534 29.7121L11.1725 23.3677C11.0359 23.0359 11.1855 22.6585 11.5174 22.5153C11.8492 22.3787 12.2266 22.5283 12.3698 22.8602L14.7058 28.3912L15.838 27.4411L13.6191 23.4263C13.4435 23.1139 13.5606 22.717 13.8729 22.5413C14.0243 22.4593 14.2018 22.4399 14.3673 22.4874C14.5327 22.5348 14.673 22.6453 14.7579 22.7951L17.2305 27.2784C17.3802 27.5517 17.3151 27.8901 17.0809 28.0918L14.862 29.9463C14.8097 29.9999 14.7468 30.0421 14.6774 30.0701C14.6079 30.0981 14.5334 30.1113 14.4586 30.109Z" fill="#880015"/>
<path d="M18.8964 30.1099C18.7467 30.1099 18.5971 30.0579 18.48 29.9602L16.2611 28.1057C16.1454 28.0088 16.0671 27.8745 16.0398 27.726C16.0125 27.5775 16.0378 27.4242 16.1114 27.2924L18.5841 22.809C18.6255 22.7343 18.6813 22.6684 18.7482 22.6152C18.8151 22.5619 18.8918 22.5224 18.974 22.4989C19.0562 22.4753 19.1422 22.4681 19.2271 22.4778C19.312 22.4875 19.3943 22.5138 19.469 22.5552C19.5438 22.5967 19.6097 22.6525 19.6629 22.7194C19.7161 22.7863 19.7556 22.863 19.7792 22.9452C19.8028 23.0273 19.8099 23.1134 19.8002 23.1983C19.7905 23.2832 19.7642 23.3654 19.7228 23.4402L17.5039 27.455L18.6361 28.4051L20.9721 22.8741C21.1088 22.5422 21.4927 22.3861 21.8246 22.5292C22.1564 22.6659 22.3126 23.0498 22.1694 23.3816L19.4885 29.726C19.4105 29.9147 19.2413 30.0579 19.0396 30.1034C18.994 30.1034 18.9485 30.1099 18.8964 30.1099ZM1.38598 30.9038C1.22921 30.9037 1.07771 30.8471 0.95935 30.7443C0.840993 30.6415 0.763736 30.4994 0.741787 30.3442C0.689731 29.9863 0.936998 29.6609 1.28838 29.6089L3.72851 29.251L7.38547 26.505V23.759C7.38547 23.4012 7.67828 23.1083 8.03617 23.1083C8.39405 23.1083 8.68687 23.4012 8.68687 23.759V26.8304C8.68687 27.0321 8.58927 27.2273 8.42659 27.3509L4.37271 30.3897C4.28812 30.4548 4.18401 30.5003 4.07339 30.5133L1.47057 30.8973C1.45105 30.9038 1.41852 30.9038 1.38598 30.9038Z" fill="#880015"/>
<path d="M16.6779 39.9998C16.32 39.9998 16.0272 39.707 16.0272 39.3491V27.6039C16.0272 27.246 16.32 26.9532 16.6779 26.9532C17.0358 26.9532 17.3286 27.246 17.3286 27.6039V39.3491C17.3286 39.7135 17.0358 39.9998 16.6779 39.9998ZM7.25568 39.9998C6.8978 39.9998 6.60498 39.707 6.60498 39.3491V35.2562C6.60498 34.8983 6.8978 34.6055 7.25568 34.6055C7.61357 34.6055 7.90639 34.8983 7.90639 35.2562V39.3491C7.90639 39.7135 7.61357 39.9998 7.25568 39.9998ZM27.1412 39.9998C26.7833 39.9998 26.4905 39.707 26.4905 39.3491V35.2562C26.4905 34.8983 26.7833 34.6055 27.1412 34.6055C27.4991 34.6055 27.7919 34.8983 27.7919 35.2562V39.3491C27.7919 39.7135 27.4991 39.9998 27.1412 39.9998ZM32.991 30.903C32.9585 30.903 32.9259 30.903 32.8934 30.8965L30.2906 30.5126C30.1818 30.4977 30.0788 30.4551 29.9912 30.3889L25.9374 27.3502C25.7747 27.2265 25.6771 27.0313 25.6771 26.8296V23.7583C25.6771 23.4004 25.9699 23.1076 26.3278 23.1076C26.6857 23.1076 26.9785 23.4004 26.9785 23.7583V26.5042L30.6354 29.2502L33.0756 29.6081C33.4335 29.6601 33.6742 29.992 33.6222 30.3434C33.5831 30.6752 33.3098 30.903 32.991 30.903ZM19.1245 9.56644C18.8968 9.56644 18.6755 9.44931 18.5584 9.23458L17.5043 7.35405C17.4747 7.29918 17.4304 7.25366 17.3764 7.22261C17.3223 7.19157 17.2607 7.17624 17.1984 7.17836C17.1399 7.17836 16.9837 7.19788 16.8926 7.35405L15.8515 9.19554C15.762 9.33584 15.6222 9.43653 15.4607 9.4769C15.2993 9.51728 15.1285 9.49427 14.9835 9.4126C14.8385 9.33094 14.7303 9.19683 14.6812 9.03785C14.632 8.87887 14.6456 8.7071 14.7192 8.55785L15.7604 6.71636C16.0597 6.18929 16.5933 5.87695 17.1984 5.87695C17.8036 5.87695 18.3372 6.1958 18.6365 6.71636L19.6906 8.59689C19.7462 8.69583 19.775 8.80758 19.7741 8.92107C19.7731 9.03456 19.7425 9.14583 19.6853 9.24384C19.6281 9.34185 19.5462 9.42319 19.4478 9.47978C19.3495 9.53637 19.238 9.56624 19.1245 9.56644Z" fill="#880015"/>
</svg>
