<svg width="43" height="40" viewBox="0 0 43 40" fill="none" xmlns="http://www.w3.org/2000/svg">
<path d="M38.3249 22.1589C38.0454 21.7963 37.5248 21.7289 37.1619 22.0085C36.7991 22.2881 36.7318 22.8088 37.0114 23.1715C37.8639 24.2773 38.3145 25.602 38.3145 27.0021C38.3145 27.46 38.6858 27.8313 39.1437 27.8313C39.6016 27.8313 39.9729 27.4599 39.9729 27.0021C39.9729 25.2322 39.4031 23.5574 38.3249 22.1589Z" fill="#880015"/>
<path d="M35.5393 16.5958C37.2229 15.4595 38.3322 13.5343 38.3322 11.3549C38.3322 7.87031 35.4972 5.03532 32.0126 5.03532C28.528 5.03532 25.693 7.87031 25.693 11.3549C25.693 13.5333 26.8012 15.4577 28.4836 16.5943C27.2503 17.0122 26.1016 17.6472 25.0917 18.4694C24.2297 17.6404 23.0728 17.1629 21.8546 17.1629C20.6364 17.1629 19.4795 17.6405 18.618 18.4694C17.6079 17.6473 16.459 17.0122 15.2255 16.5942C16.9078 15.4577 18.0161 13.5333 18.0161 11.3548C18.0161 7.87014 15.1811 5.03516 11.6965 5.03516C8.21225 5.03516 5.37768 7.87014 5.37768 11.3548C5.37768 13.5342 6.48675 15.4592 8.17013 16.5956C3.8429 18.066 0.719475 22.1649 0.710141 26.9811C0.709893 26.9884 0.708984 26.9953 0.708984 27.0026C0.708984 28.2757 1.43239 30.1546 4.87894 31.876C7.3348 33.1026 10.7097 34.0247 14.6388 34.5423C16.9434 34.8463 19.3712 35.0005 21.8546 35.0005C24.3385 35.0005 26.7665 34.8464 29.0711 34.5423C32.9999 34.0247 36.3745 33.1026 38.8303 31.876C42.2766 30.1545 43 28.2757 43 27.0026C43 22.1772 39.8732 18.0684 35.5393 16.5958ZM27.3515 11.3549C27.3515 8.78477 29.4425 6.69384 32.0126 6.69384C34.5827 6.69384 36.6737 8.78485 36.6737 11.3549C36.6737 13.9247 34.5827 16.0152 32.0126 16.0152C29.4425 16.0152 27.3515 13.9247 27.3515 11.3549ZM19.3803 20.1169C19.9437 19.3057 20.8685 18.8214 21.8545 18.8214C22.3409 18.8216 22.8201 18.9396 23.2511 19.1652C23.682 19.3908 24.052 19.7173 24.3294 20.1169L24.3298 20.1174C24.6813 20.6229 24.867 21.2163 24.867 21.8339C24.867 23.4951 23.5156 24.8465 21.8544 24.8465C20.1937 24.8465 18.8427 23.495 18.8427 21.8339C18.8427 21.2154 19.0283 20.622 19.3803 20.1169ZM7.03603 11.3549C7.03603 8.78477 9.12663 6.69384 11.6963 6.69384C14.2665 6.69384 16.3574 8.78485 16.3574 11.3549C16.3574 13.9247 14.2664 16.0152 11.6963 16.0152C9.12663 16.0152 7.03603 13.9247 7.03603 11.3549ZM13.9182 32.7648C10.5742 32.2556 7.71955 31.4409 5.62011 30.3923C3.52869 29.3479 2.37461 28.1479 2.36792 27.0125C2.36792 27.0092 2.36841 27.006 2.36841 27.0027C2.36833 21.8587 6.55291 17.6737 11.6964 17.6737C13.8846 17.6737 15.9723 18.4297 17.643 19.8143C17.3417 20.4403 17.1843 21.1266 17.1843 21.834C17.1843 23.2776 17.8427 24.5702 18.8747 25.4278C15.9762 26.6062 13.9258 29.45 13.9182 32.7648ZM28.1335 32.9868C26.1165 33.2221 24.0084 33.3421 21.8545 33.3421C19.7011 33.3421 17.5933 33.2221 15.5763 32.9868V32.7832C15.5763 29.3214 18.3927 26.505 21.8545 26.505C25.3167 26.505 28.1335 29.3214 28.1335 32.7832V32.9868ZM38.0891 30.3923C35.9898 31.4409 33.1355 32.2555 29.7918 32.7648C29.7843 29.4499 27.7337 26.6063 24.8349 25.4277C25.8672 24.5701 26.5258 23.2775 26.5258 21.8339C26.5258 21.1273 26.3683 20.4408 26.0667 19.8142C27.7367 18.4295 29.8241 17.6736 32.0128 17.6736C37.1567 17.6736 41.3416 21.8586 41.3416 27.0025C41.3416 28.1409 40.1865 29.3447 38.0891 30.3923Z" fill="#880015"/>
<path d="M35.8416 20.2109C34.7745 20.2109 34.7726 21.8694 35.8416 21.8694C36.9088 21.8694 36.9105 20.2109 35.8416 20.2109Z" fill="#880015"/>
<g filter="url(#filter0_d_1297_865)">
<rect x="39.6372" y="2" width="2" height="50" rx="1" transform="rotate(47.1173 39.6372 2)" fill="#880015"/>
</g>
<defs>
<filter id="filter0_d_1297_865" x="1.41309" y="0.413086" width="41.1719" height="38.6641" filterUnits="userSpaceOnUse" color-interpolation-filters="sRGB">
<feFlood flood-opacity="0" result="BackgroundImageFix"/>
<feColorMatrix in="SourceAlpha" type="matrix" values="0 0 0 0 0 0 0 0 0 0 0 0 0 0 0 0 0 0 127 0" result="hardAlpha"/>
<feMorphology radius="2" operator="dilate" in="SourceAlpha" result="effect1_dropShadow_1297_865"/>
<feOffset/>
<feComposite in2="hardAlpha" operator="out"/>
<feColorMatrix type="matrix" values="0 0 0 0 1 0 0 0 0 0.952941 0 0 0 0 0.960784 0 0 0 1 0"/>
<feBlend mode="normal" in2="BackgroundImageFix" result="effect1_dropShadow_1297_865"/>
<feBlend mode="normal" in="SourceGraphic" in2="effect1_dropShadow_1297_865" result="shape"/>
</filter>
</defs>
</svg>
