<svg width="43" height="43" viewBox="0 0 43 43" fill="none" xmlns="http://www.w3.org/2000/svg">
<path fill-rule="evenodd" clip-rule="evenodd" d="M18.1745 13.8012C18.2142 13.7782 18.2471 13.7452 18.27 13.7055C18.293 13.6657 18.305 13.6207 18.305 13.5748C18.305 13.529 18.293 13.4839 18.2701 13.4442C18.2472 13.4044 18.2143 13.3714 18.1746 13.3484L13.9875 10.9315C13.9478 10.9087 13.9028 10.8966 13.857 10.8967C13.8112 10.8967 13.7663 10.9087 13.7266 10.9316C13.6869 10.9544 13.654 10.9873 13.6311 11.027C13.6081 11.0666 13.596 11.1116 13.5959 11.1573V15.9927C13.5959 16.0857 13.6448 16.1717 13.7256 16.2181C13.7656 16.2411 13.8109 16.2538 13.8571 16.2538C13.9028 16.2538 13.9479 16.2414 13.9875 16.2185L18.1745 13.8012ZM31.9994 30.2968C31.9994 32.0955 30.5373 33.5585 28.7386 33.5585C26.9395 33.5585 25.4768 32.096 25.4768 30.2968V22.7831C25.4768 20.9842 26.9396 19.5214 28.7386 19.5214C30.5371 19.5214 31.9994 20.9847 31.9994 22.7831V30.2968ZM15.5621 19.9272C12.0595 19.9272 9.20947 17.0782 9.20947 13.5753C9.20947 10.072 12.0588 7.22266 15.5621 7.22266C19.0658 7.22266 21.9148 10.0717 21.9148 13.5753C21.9148 17.0784 19.065 19.9272 15.5621 19.9272Z" fill="#FFF3F5"/>
<path fill-rule="evenodd" clip-rule="evenodd" d="M14.4664 12.213L16.8251 13.5751L14.4664 14.9364V12.213ZM13.5521 16.5198C13.6464 16.5739 13.7517 16.6017 13.857 16.6017C13.9624 16.6017 14.0677 16.5739 14.1615 16.5198L18.3487 14.1025C18.4412 14.049 18.5181 13.9722 18.5715 13.8796C18.625 13.787 18.6531 13.682 18.6531 13.5751C18.6532 13.468 18.625 13.3628 18.5716 13.2701C18.5182 13.1773 18.4413 13.1002 18.3487 13.0465L14.1615 10.6296C14.0689 10.5761 13.9638 10.5479 13.8569 10.5479C13.7499 10.5479 13.6448 10.5761 13.5522 10.6296C13.4595 10.683 13.3826 10.7598 13.3291 10.8524C13.2757 10.945 13.2476 11.0501 13.2477 11.157V15.9924C13.2477 16.21 13.3632 16.4112 13.5521 16.5198ZM15.5621 7.57062C12.2511 7.57062 9.55764 10.2637 9.55764 13.5751C9.55764 16.8853 12.2511 19.5788 15.5621 19.5788C18.8735 19.5788 21.5666 16.8853 21.5666 13.5751C21.5666 10.2637 18.8735 7.57062 15.5621 7.57062ZM15.5621 20.7974C19.5448 20.7974 22.7852 17.5573 22.7852 13.5751C22.7852 9.59202 19.5448 6.35197 15.5621 6.35197C11.579 6.35197 8.33898 9.59211 8.33898 13.5751C8.33898 17.5573 11.579 20.7974 15.5621 20.7974ZM40.3652 26.5397C40.3652 27.5338 39.98 28.4689 39.2752 29.1713C39.1564 29.2905 39.0006 29.35 38.8449 29.35C38.6892 29.35 38.5335 29.2905 38.4146 29.1713C38.1769 28.9336 38.1769 28.548 38.4146 28.3095C38.8859 27.8366 39.1482 27.2084 39.1482 26.5397C39.1482 25.8713 38.8859 25.2419 38.4146 24.7694C38.1769 24.5318 38.1769 24.1461 38.4146 23.9076C38.4711 23.8511 38.5382 23.8063 38.6121 23.7757C38.6859 23.7451 38.765 23.7294 38.8449 23.7294C38.9248 23.7294 39.004 23.7451 39.0778 23.7757C39.1516 23.8063 39.2187 23.8511 39.2752 23.9076C39.9799 24.6108 40.3652 25.5455 40.3652 26.5397ZM43 26.5397C43 24.8416 42.3403 23.245 41.1396 22.044C41.0831 21.9874 41.0161 21.9426 40.9422 21.912C40.8684 21.8815 40.7893 21.8657 40.7094 21.8657C40.6295 21.8657 40.5503 21.8815 40.4765 21.912C40.4027 21.9426 40.3356 21.9874 40.2791 22.044C40.0414 22.2825 40.0414 22.6681 40.2791 22.9057C41.2462 23.876 41.783 25.1673 41.783 26.5397C41.783 27.9125 41.2462 29.2029 40.2791 30.1739C40.1649 30.2881 40.1008 30.443 40.1008 30.6044C40.1008 30.7659 40.1649 30.9207 40.2791 31.0349C40.3979 31.1542 40.5536 31.2132 40.7094 31.2132C40.8651 31.2132 41.0208 31.1542 41.1396 31.0358C42.3403 29.8346 43 28.2382 43 26.5397ZM34.2623 30.2965C34.2623 33.3432 31.7844 35.8215 28.7385 35.8215C25.6918 35.8215 23.2135 33.3432 23.2135 30.2965V27.149H24.6063V30.2965C24.6063 32.5756 26.4606 34.4287 28.7385 34.4287C31.0165 34.4287 32.8695 32.5756 32.8695 30.2965V27.149H34.2623V30.2965ZM1.21865 1.21865V25.9303H14.5036C14.643 24.4621 15.281 23.0996 16.337 22.044C16.5755 21.8063 16.9611 21.8063 17.1988 22.044C17.2555 22.1005 17.3004 22.1676 17.3311 22.2416C17.3618 22.3155 17.3776 22.3948 17.3776 22.4748C17.3776 22.5549 17.3618 22.6342 17.3311 22.7081C17.3004 22.782 17.2555 22.8492 17.1988 22.9057C16.3735 23.7314 15.8649 24.7883 15.7313 25.9302H17.161C17.2856 25.1676 17.6433 24.4652 18.2006 23.9075C18.4391 23.6699 18.8247 23.6699 19.0623 23.9075C19.119 23.9641 19.164 24.0312 19.1947 24.1052C19.2254 24.1791 19.2412 24.2584 19.2412 24.3384C19.2412 24.4185 19.2254 24.4977 19.1947 24.5717C19.164 24.6456 19.119 24.7128 19.0623 24.7693C18.7409 25.0889 18.5131 25.4904 18.4034 25.9302H24.6062V22.7828C24.6062 20.504 26.4604 18.6506 28.7384 18.6506C29.1432 18.6506 29.5346 18.7109 29.9058 18.8195V1.21865H1.21865ZM31.6512 22.7828C31.6512 21.1761 30.3445 19.8693 28.7385 19.8693C27.1318 19.8693 25.825 21.1761 25.825 22.7828V30.2965C25.825 31.9036 27.1317 33.21 28.7385 33.21C30.3445 33.21 31.6512 31.9036 31.6512 30.2965V22.7828ZM34.8717 25.9303H32.8695V22.7828C32.8695 21.3929 32.1795 20.1618 31.1243 19.4124V0.609327C31.1243 0.273327 30.8514 0 30.515 0H0.609327C0.273327 0 0 0.273327 0 0.609327V26.5397C0 26.8757 0.273327 27.149 0.609327 27.149H14.5036C14.643 28.6169 15.281 29.979 16.337 31.0357C16.4514 31.1496 16.6063 31.2134 16.7677 31.2131C16.8478 31.2134 16.9271 31.1978 17.0011 31.1672C17.0751 31.1366 17.1423 31.0916 17.1988 31.0348C17.2555 30.9784 17.3005 30.9113 17.3312 30.8374C17.3619 30.7636 17.3777 30.6843 17.3777 30.6043C17.3777 30.5243 17.3619 30.4451 17.3312 30.3713C17.3005 30.2974 17.2555 30.2303 17.1988 30.1739C16.3735 29.3478 15.8649 28.2909 15.7301 27.1489H17.1611C17.2856 27.9115 17.6434 28.6139 18.2007 29.1712C18.3199 29.2904 18.4757 29.3499 18.6314 29.3499C18.7871 29.3499 18.944 29.2904 19.0624 29.1712C19.1191 29.1146 19.1641 29.0475 19.1948 28.9735C19.2255 28.8996 19.2413 28.8203 19.2413 28.7403C19.2413 28.6602 19.2255 28.581 19.1948 28.507C19.1641 28.4331 19.1191 28.3659 19.0624 28.3094C18.7366 27.9836 18.5121 27.5841 18.4035 27.1489H21.9948V30.2964C21.9948 33.8098 24.6952 36.7017 28.1291 37.0115V41.7825H27.0887C26.7527 41.7825 26.4798 42.0549 26.4798 42.3918C26.4798 42.7287 26.7527 43.0011 27.0887 43.0011H30.387C30.7239 43.0011 30.9964 42.7286 30.9964 42.3918C30.9964 42.055 30.7239 41.7825 30.387 41.7825H29.3479V37.0115C32.781 36.7017 35.481 33.8099 35.481 30.2964V26.5396C35.4811 26.4595 35.4654 26.3803 35.4348 26.3063C35.4042 26.2324 35.3593 26.1652 35.3027 26.1086C35.2461 26.052 35.1789 26.0071 35.1049 25.9765C35.031 25.9459 34.9517 25.9302 34.8717 25.9303Z" fill="#880015"/>
</svg>
