<svg width="43" height="30" viewBox="0 0 43 30" fill="none" xmlns="http://www.w3.org/2000/svg">
<path d="M38.3249 17.1589C38.0454 16.7963 37.5248 16.7289 37.1619 17.0085C36.7991 17.2881 36.7318 17.8088 37.0114 18.1715C37.8639 19.2773 38.3145 20.602 38.3145 22.0021C38.3145 22.46 38.6858 22.8313 39.1437 22.8313C39.6016 22.8313 39.9729 22.4599 39.9729 22.0021C39.9729 20.2322 39.4031 18.5574 38.3249 17.1589Z" fill="#880015"/>
<path d="M35.5393 11.5958C37.2229 10.4595 38.3322 8.53433 38.3322 6.35494C38.3322 2.87031 35.4972 0.0353214 32.0126 0.0353214C28.528 0.0353214 25.693 2.87031 25.693 6.35494C25.693 8.53334 26.8012 10.4577 28.4836 11.5943C27.2503 12.0122 26.1016 12.6472 25.0917 13.4694C24.2297 12.6404 23.0728 12.1629 21.8546 12.1629C20.6364 12.1629 19.4795 12.6405 18.618 13.4694C17.6079 12.6473 16.459 12.0122 15.2255 11.5942C16.9078 10.4577 18.0161 8.53326 18.0161 6.35477C18.0161 2.87014 15.1811 0.0351562 11.6965 0.0351562C8.21225 0.0351562 5.37768 2.87014 5.37768 6.35477C5.37768 8.53416 6.48675 10.4592 8.17013 11.5956C3.8429 13.066 0.719475 17.1649 0.710141 21.9811C0.709893 21.9884 0.708984 21.9953 0.708984 22.0026C0.708984 23.2757 1.43239 25.1546 4.87894 26.876C7.3348 28.1026 10.7097 29.0247 14.6388 29.5423C16.9434 29.8463 19.3712 30.0005 21.8546 30.0005C24.3385 30.0005 26.7665 29.8464 29.0711 29.5423C32.9999 29.0247 36.3745 28.1026 38.8303 26.876C42.2766 25.1545 43 23.2757 43 22.0026C43 17.1772 39.8732 13.0684 35.5393 11.5958ZM27.3515 6.35494C27.3515 3.78477 29.4425 1.69384 32.0126 1.69384C34.5827 1.69384 36.6737 3.78485 36.6737 6.35494C36.6737 8.9247 34.5827 11.0152 32.0126 11.0152C29.4425 11.0152 27.3515 8.9247 27.3515 6.35494ZM19.3803 15.1169C19.9437 14.3057 20.8685 13.8214 21.8545 13.8214C22.3409 13.8216 22.8201 13.9396 23.2511 14.1652C23.682 14.3908 24.052 14.7173 24.3294 15.1169L24.3298 15.1174C24.6813 15.6229 24.867 16.2163 24.867 16.8339C24.867 18.4951 23.5156 19.8465 21.8544 19.8465C20.1937 19.8465 18.8427 18.495 18.8427 16.8339C18.8427 16.2154 19.0283 15.622 19.3803 15.1169ZM7.03603 6.35494C7.03603 3.78477 9.12663 1.69384 11.6963 1.69384C14.2665 1.69384 16.3574 3.78485 16.3574 6.35494C16.3574 8.9247 14.2664 11.0152 11.6963 11.0152C9.12663 11.0152 7.03603 8.9247 7.03603 6.35494ZM13.9182 27.7648C10.5742 27.2556 7.71955 26.4409 5.62011 25.3923C3.52869 24.3479 2.37461 23.1479 2.36792 22.0125C2.36792 22.0092 2.36841 22.006 2.36841 22.0027C2.36833 16.8587 6.55291 12.6737 11.6964 12.6737C13.8846 12.6737 15.9723 13.4297 17.643 14.8143C17.3417 15.4403 17.1843 16.1266 17.1843 16.834C17.1843 18.2776 17.8427 19.5702 18.8747 20.4278C15.9762 21.6062 13.9258 24.45 13.9182 27.7648ZM28.1335 27.9868C26.1165 28.2221 24.0084 28.3421 21.8545 28.3421C19.7011 28.3421 17.5933 28.2221 15.5763 27.9868V27.7832C15.5763 24.3214 18.3927 21.505 21.8545 21.505C25.3167 21.505 28.1335 24.3214 28.1335 27.7832V27.9868ZM38.0891 25.3923C35.9898 26.4409 33.1355 27.2555 29.7918 27.7648C29.7843 24.4499 27.7337 21.6063 24.8349 20.4277C25.8672 19.5701 26.5258 18.2775 26.5258 16.8339C26.5258 16.1273 26.3683 15.4408 26.0667 14.8142C27.7367 13.4295 29.8241 12.6736 32.0128 12.6736C37.1567 12.6736 41.3416 16.8586 41.3416 22.0025C41.3416 23.1409 40.1865 24.3447 38.0891 25.3923Z" fill="#880015"/>
<path d="M35.8416 15.2109C34.7745 15.2109 34.7726 16.8694 35.8416 16.8694C36.9088 16.8694 36.9105 15.2109 35.8416 15.2109Z" fill="#880015"/>
</svg>
