<svg width="18" height="21" viewBox="0 0 18 21" fill="none" xmlns="http://www.w3.org/2000/svg">
<path d="M0.901056 8.84105C0.901205 8.95996 0.948507 9.07397 1.0326 9.15807C1.11683 9.2423 1.23107 9.28961 1.35018 9.28961C1.4693 9.28961 1.58353 9.2423 1.66776 9.15807C1.75199 9.07384 1.79931 8.9596 1.79931 8.84049L1.7993 8.83943C1.78631 7.61686 2.03384 6.40555 2.52543 5.2861L2.52544 5.2861L2.52603 5.2847C2.9642 4.24399 3.67966 3.34357 4.5944 2.68158C7.08978 1.05086 10.5165 1.68845 11.8634 4.42561L11.8633 4.42564L11.8651 4.42889C12.8671 6.28862 13.1961 8.92564 12.4039 10.969C12.0169 11.8528 11.3503 12.5678 10.6649 13.3029C10.6184 13.3528 10.5718 13.4028 10.5251 13.4529C9.79607 14.2372 9.06842 15.0565 8.70652 16.1229L8.70615 16.1228L8.70406 16.1313C8.50555 16.9462 8.30762 17.6622 7.93434 18.2323C7.56498 18.7964 7.02005 19.2227 6.11339 19.4469L6.11303 19.447C5.57019 19.5833 5.00499 19.6058 4.45306 19.5128C3.90113 19.4199 3.37444 19.2136 2.9062 18.907L2.89872 18.9021L2.8905 18.8986C2.89087 18.8987 2.89068 18.8986 2.88996 18.8983C2.8582 18.8828 1.79931 18.3682 1.79931 16.4165C1.79931 16.2974 1.75199 16.1832 1.66776 16.0989C1.58353 16.0147 1.4693 15.9674 1.35018 15.9674C1.23107 15.9674 1.11683 16.0147 1.0326 16.0989L1.10313 16.1695L1.0326 16.0989C0.948374 16.1832 0.901056 16.2974 0.901056 16.4165C0.901056 18.7646 2.21097 19.56 2.48519 19.6999C3.46553 20.3777 4.79616 20.5972 6.0161 20.3755C7.23833 20.1534 8.36596 19.4849 8.92029 18.3676C9.09013 18.0447 9.19699 17.7117 9.28765 17.3822C9.31689 17.2759 9.34427 17.1708 9.37144 17.0665C9.42932 16.8443 9.48621 16.6259 9.55793 16.4086C9.92504 15.4117 10.6222 14.6506 11.3454 13.8788C11.3658 13.857 11.3862 13.8353 11.4065 13.8136C12.1067 13.0668 12.8227 12.303 13.2343 11.3112L13.2343 11.3112L13.235 11.3094C14.1353 9.01496 13.7766 6.08408 12.6553 4.00056C11.0381 0.771296 7.02265 0.0324214 4.08941 1.93786L4.08939 1.93783L4.08731 1.93926C1.98854 3.37914 0.871633 6.21449 0.901056 8.84105ZM0.901056 8.84105C0.901056 8.84086 0.901056 8.84068 0.901056 8.84049H1.00106L0.901062 8.84161C0.90106 8.84143 0.901058 8.84124 0.901056 8.84105Z" fill="#000B1F" stroke="#DAEEDD" stroke-width="0.2"/>
<path d="M2.51524 14.6304L2.51523 14.6293L2.51523 13.7432C2.51523 13.6241 2.56255 13.5099 2.64678 13.4256C2.73101 13.3414 2.84524 13.2941 2.96436 13.2941C3.08348 13.2941 3.19771 13.3414 3.28194 13.4256C3.36617 13.5099 3.41349 13.6241 3.41349 13.7432V14.6283C3.41781 14.8335 3.5023 15.0288 3.64889 15.1725C3.7957 15.3165 3.9931 15.3971 4.19869 15.3971C4.40429 15.3971 4.60169 15.3165 4.7485 15.1725C4.89509 15.0288 4.97958 14.8335 4.9839 14.6283V14.1021V14.1015C4.98674 13.653 5.10681 13.2131 5.33219 12.8253C5.55719 12.4382 5.87934 12.1166 6.26677 11.8922C6.46618 11.765 6.68659 11.6787 6.90461 11.6061C6.99615 11.5756 7.08503 11.5482 7.17216 11.5212C7.29904 11.482 7.42221 11.444 7.54448 11.3994C7.94597 11.2529 8.26576 11.0592 8.40592 10.6257C8.52287 10.2274 8.52374 9.80405 8.40842 9.40527C8.29312 9.00656 8.06646 8.64904 7.75507 8.37467C7.27027 7.97394 6.67915 7.72322 6.05406 7.6532C5.44726 7.58522 4.83402 7.6904 4.28506 7.95596C4.23715 8.74019 4.3613 9.52566 4.64908 10.2572L4.6493 10.2578C4.69224 10.3689 4.68928 10.4926 4.64106 10.6015C4.59284 10.7105 4.50332 10.7958 4.39219 10.8387C4.28106 10.8817 4.15743 10.8787 4.04848 10.8305C3.93954 10.7823 3.85422 10.6927 3.81128 10.5816M2.51524 14.6304L3.90456 10.5456M2.51524 14.6304C2.51904 14.9613 2.61982 15.2837 2.8051 15.5578C2.99037 15.8319 3.252 16.0456 3.55756 16.1725C3.86312 16.2993 4.19918 16.3337 4.5241 16.2714C4.84829 16.2092 5.14717 16.0535 5.38389 15.8235C5.88043 15.3804 5.91113 14.6736 5.88218 14.1C5.88507 13.8096 5.96357 13.5249 6.10997 13.2741C6.25672 13.0226 6.4666 12.8138 6.71882 12.6684C6.94086 12.5455 7.17547 12.4604 7.41496 12.3807C7.45898 12.366 7.5033 12.3515 7.54776 12.3369C7.74289 12.273 7.94077 12.2082 8.12838 12.1263C8.59796 11.9215 9.01416 11.6054 9.25744 10.9121L9.25754 10.9121L9.25885 10.9078C9.42881 10.3425 9.4336 9.74043 9.27264 9.17254C9.11168 8.60464 8.79169 8.09461 8.3504 7.70259L8.35046 7.70252L8.34715 7.69983C7.78862 7.24473 7.12334 6.93947 6.41408 6.81284C5.76542 6.69704 5.09954 6.73415 4.46916 6.92013M2.51524 14.6304L4.46916 6.92013M3.81128 10.5816L3.90456 10.5456M3.81128 10.5816C3.81128 10.5816 3.81129 10.5816 3.81129 10.5817L3.90456 10.5456M3.81128 10.5816C2.91894 8.27555 3.42102 5.78018 5.06544 4.52399L5.06548 4.52396C5.15636 4.4546 5.5996 4.13105 6.24871 3.90248C6.89823 3.67377 7.75985 3.53822 8.68096 3.85462L8.68098 3.85462C10.3555 4.4302 11.448 6.23248 11.3574 8.2246C11.3547 8.28352 11.3404 8.34133 11.3154 8.39474C11.2904 8.44815 11.2551 8.4961 11.2115 8.53587C11.168 8.57563 11.117 8.60643 11.0615 8.6265C11.0061 8.64657 10.9472 8.65552 10.8883 8.65283C10.8294 8.65015 10.7715 8.63589 10.7181 8.61086C10.6647 8.58583 10.6168 8.55053 10.577 8.50697L10.6509 8.43955M3.90456 10.5456C3.02371 8.26927 3.5261 5.82574 5.12615 4.60345C5.29861 4.47183 6.86165 3.33543 8.64847 3.94919C10.2737 4.50779 11.3465 6.26389 11.2575 8.22005C11.2554 8.26585 11.2443 8.31079 11.2249 8.35231C11.2054 8.39382 11.178 8.4311 11.1441 8.46201C11.1102 8.49293 11.0706 8.51687 11.0275 8.53247C10.9844 8.54807 10.9386 8.55502 10.8928 8.55294C10.847 8.55085 10.8021 8.53976 10.7606 8.52031C10.719 8.50085 10.6818 8.47341 10.6509 8.43955M10.6509 8.43955L10.577 8.50697C10.5372 8.46341 10.5064 8.41244 10.4864 8.35698C10.4663 8.30152 10.4574 8.24265 10.46 8.18372L10.46 8.18371C10.5338 6.5705 9.67377 5.1472 8.39133 4.70487C7.32466 4.40464 6.41541 4.65501 5.731 5.15231C5.1001 5.61074 4.66046 6.27918 4.46916 6.92013M10.6509 8.43955C10.6199 8.40569 10.596 8.36607 10.5804 8.32295C10.5648 8.27984 10.5578 8.23408 10.5599 8.18827M10.5599 8.18827C10.6353 6.5397 9.7559 5.06814 8.42119 4.60939C6.2809 4.00525 4.73916 5.5549 4.355 6.95557C4.39292 6.94321 4.43097 6.9314 4.46916 6.92013M10.5599 8.18827L8.28399 7.77735C7.73863 7.33299 7.08903 7.03492 6.39651 6.91129C5.74259 6.79454 5.07077 6.83696 4.43767 7.03417C4.44728 6.99629 4.45778 6.95826 4.46916 6.92013M10.5599 8.18827L4.46916 6.92013" fill="#000B1F" stroke="#DAEEDD" stroke-width="0.2"/>
<mask id="path-3-outside-1_1020_7634" maskUnits="userSpaceOnUse" x="10.2388" y="7.12646" width="5" height="10" fill="black">
<rect fill="white" x="10.2388" y="7.12646" width="5" height="10"/>
<path d="M12.9352 15.3877C13.0008 15.3866 13.0646 15.3663 13.1189 15.3294C13.1731 15.2925 13.2154 15.2406 13.2405 15.18C13.2656 15.1194 13.2724 15.0528 13.2601 14.9883C13.2479 14.9239 13.2171 14.8645 13.1714 14.8173C12.3616 14.0056 11.9067 12.9058 11.9067 11.7591C11.9067 10.6125 12.3616 9.51264 13.1714 8.70091C13.2034 8.67009 13.2288 8.63322 13.2463 8.59246C13.2638 8.5517 13.2731 8.50785 13.2734 8.46349C13.2738 8.41912 13.2654 8.37513 13.2486 8.33407C13.2318 8.293 13.207 8.2557 13.1756 8.22433C13.1442 8.19295 13.1069 8.16815 13.0658 8.15135C13.0248 8.13455 12.9808 8.12609 12.9364 8.12648C12.8921 8.12686 12.8482 8.13608 12.8075 8.15359C12.7667 8.1711 12.7298 8.19656 12.699 8.22847C11.7639 9.16555 11.2388 10.4353 11.2388 11.7591C11.2388 13.0829 11.7639 14.3527 12.699 15.2898C12.73 15.3208 12.7668 15.3455 12.8073 15.3623C12.8479 15.3791 12.8913 15.3877 12.9352 15.3877Z"/>
</mask>
<path d="M12.9352 15.3877C13.0008 15.3866 13.0646 15.3663 13.1189 15.3294C13.1731 15.2925 13.2154 15.2406 13.2405 15.18C13.2656 15.1194 13.2724 15.0528 13.2601 14.9883C13.2479 14.9239 13.2171 14.8645 13.1714 14.8173C12.3616 14.0056 11.9067 12.9058 11.9067 11.7591C11.9067 10.6125 12.3616 9.51264 13.1714 8.70091C13.2034 8.67009 13.2288 8.63322 13.2463 8.59246C13.2638 8.5517 13.2731 8.50785 13.2734 8.46349C13.2738 8.41912 13.2654 8.37513 13.2486 8.33407C13.2318 8.293 13.207 8.2557 13.1756 8.22433C13.1442 8.19295 13.1069 8.16815 13.0658 8.15135C13.0248 8.13455 12.9808 8.12609 12.9364 8.12648C12.8921 8.12686 12.8482 8.13608 12.8075 8.15359C12.7667 8.1711 12.7298 8.19656 12.699 8.22847C11.7639 9.16555 11.2388 10.4353 11.2388 11.7591C11.2388 13.0829 11.7639 14.3527 12.699 15.2898C12.73 15.3208 12.7668 15.3455 12.8073 15.3623C12.8479 15.3791 12.8913 15.3877 12.9352 15.3877Z" fill="#000B1F"/>
<path d="M12.9352 15.3877L12.9363 16.3877L12.9441 16.3877L12.9519 16.3875L12.9352 15.3877ZM13.1714 14.8173L13.8902 14.122L13.8848 14.1165L13.8794 14.111L13.1714 14.8173ZM13.1714 8.70091L12.4767 7.98163L12.4701 7.98806L12.4635 7.99461L13.1714 8.70091ZM12.699 8.22847L13.4069 8.93482L13.4126 8.92905L13.4183 8.92318L12.699 8.22847ZM12.699 15.2898L13.4071 14.5836L13.4069 14.5834L12.699 15.2898ZM12.9519 16.3875C13.2124 16.3832 13.466 16.3028 13.6814 16.1562L12.5564 14.5026C12.6633 14.4299 12.7892 14.39 12.9186 14.3878L12.9519 16.3875ZM13.6814 16.1562C13.8968 16.0097 14.0647 15.8034 14.1644 15.5627L12.3166 14.7973C12.3661 14.6778 12.4494 14.5754 12.5564 14.5026L13.6814 16.1562ZM14.1644 15.5627C14.2641 15.3219 14.2912 15.0573 14.2425 14.8014L12.2778 15.1753C12.2536 15.0482 12.2671 14.9169 12.3166 14.7973L14.1644 15.5627ZM14.2425 14.8014C14.1938 14.5454 14.0713 14.3093 13.8902 14.122L12.4527 15.5126C12.3628 15.4196 12.302 15.3024 12.2778 15.1753L14.2425 14.8014ZM13.8794 14.111C13.2565 13.4868 12.9067 12.6409 12.9067 11.7591H10.9067C10.9067 13.1706 11.4666 14.5244 12.4635 15.5236L13.8794 14.111ZM12.9067 11.7591C12.9067 10.8773 13.2565 10.0315 13.8794 9.40722L12.4635 7.99461C11.4666 8.9938 10.9067 10.3476 10.9067 11.7591H12.9067ZM13.8662 9.4202C13.9936 9.29712 14.0952 9.14991 14.1651 8.98715L12.3275 8.19777C12.3624 8.11654 12.4131 8.04306 12.4767 7.98163L13.8662 9.4202ZM14.1651 8.98715C14.2351 8.82439 14.2719 8.64933 14.2734 8.47218L12.2735 8.4548C12.2742 8.36638 12.2926 8.279 12.3275 8.19777L14.1651 8.98715ZM14.2734 8.47218C14.2749 8.29504 14.2412 8.11936 14.1741 7.9554L12.323 8.71273C12.2896 8.6309 12.2727 8.54321 12.2735 8.4548L14.2734 8.47218ZM14.1741 7.9554C14.107 7.79145 14.008 7.64249 13.8827 7.51722L12.4685 8.93143C12.406 8.86891 12.3565 8.79456 12.323 8.71273L14.1741 7.9554ZM13.8827 7.51722C13.7574 7.39195 13.6085 7.29289 13.4445 7.22581L12.6872 9.07688C12.6054 9.0434 12.531 8.99396 12.4685 8.93143L13.8827 7.51722ZM13.4445 7.22581C13.2806 7.15873 13.1049 7.12498 12.9277 7.12652L12.9451 9.12644C12.8567 9.12721 12.769 9.11036 12.6872 9.07688L13.4445 7.22581ZM12.9277 7.12652C12.7506 7.12805 12.5755 7.16486 12.4128 7.23478L13.2021 9.0724C13.1209 9.1073 13.0335 9.12567 12.9451 9.12644L12.9277 7.12652ZM12.4128 7.23478C12.25 7.3047 12.1028 7.40633 11.9797 7.53376L13.4183 8.92318C13.3569 8.98678 13.2834 9.03751 13.2021 9.0724L12.4128 7.23478ZM11.9911 7.52212C10.869 8.64667 10.2388 10.1705 10.2388 11.7591H12.2388C12.2388 10.7001 12.6589 9.68442 13.4069 8.93482L11.9911 7.52212ZM10.2388 11.7591C10.2388 13.3478 10.869 14.8716 11.9911 15.9961L13.4069 14.5834C12.6589 13.8338 12.2388 12.8181 12.2388 11.7591H10.2388ZM11.9909 15.9959C12.1149 16.1202 12.2623 16.2189 12.4245 16.2861L13.1902 14.4385C13.2713 14.4721 13.3451 14.5214 13.4071 14.5836L11.9909 15.9959ZM12.4245 16.2861C12.5867 16.3533 12.7606 16.3878 12.9363 16.3877L12.9342 14.3877C13.022 14.3876 13.109 14.4048 13.1902 14.4385L12.4245 16.2861Z" fill="#DAEEDD" mask="url(#path-3-outside-1_1020_7634)"/>
<path d="M13.8312 14.5446L13.8311 14.5446L13.8378 14.551C13.9951 14.703 14.2058 14.7871 14.4245 14.7852C14.6432 14.7833 14.8524 14.6955 15.0071 14.5409C15.1617 14.3862 15.2494 14.177 15.2513 13.9583C15.2532 13.7396 15.1692 13.5289 15.0172 13.3716L15.0173 13.3716L15.0116 13.3658C14.5861 12.9393 14.3472 12.3615 14.3472 11.759C14.3472 11.1577 14.5852 10.5809 15.0092 10.1546C15.0869 10.0785 15.1489 9.98791 15.1919 9.88795C15.2356 9.78619 15.2586 9.67673 15.2596 9.56598C15.2605 9.45522 15.2394 9.34539 15.1975 9.24288L15.1975 9.24288C15.1555 9.14036 15.0936 9.04723 15.0153 8.96892C14.937 8.8906 14.8438 8.82867 14.7413 8.78672C14.6388 8.74478 14.529 8.72368 14.4182 8.72464C14.3075 8.7256 14.198 8.74861 14.0962 8.79233L14.0962 8.79233C13.996 8.83541 13.9051 8.89774 13.8289 8.97578C13.0926 9.7149 12.6792 10.7157 12.6792 11.759C12.6792 12.8034 13.0935 13.8052 13.8312 14.5446ZM15.9089 13.691V13.6911L15.9162 13.691C16.0792 13.6883 16.2379 13.6379 16.3728 13.5462L16.0915 13.1328L16.3728 13.5462C16.5076 13.4545 16.6127 13.3254 16.6751 13.1747C16.7375 13.0241 16.7545 12.8584 16.724 12.6983L16.2328 12.7917L16.724 12.6983C16.6935 12.5381 16.6168 12.3903 16.5035 12.2731L16.5035 12.273L16.4981 12.2676C16.3634 12.1326 16.2878 11.9496 16.2878 11.7588C16.2878 11.5681 16.3634 11.3851 16.4981 11.25L16.4982 11.2501L16.5037 11.2443C16.6557 11.087 16.7397 10.8763 16.7378 10.6576C16.7359 10.4389 16.6482 10.2297 16.4936 10.075L16.14 10.4286L16.4936 10.075C16.3389 9.92039 16.1297 9.83267 15.911 9.83077C15.6923 9.82887 15.4816 9.91295 15.3243 10.0649L15.3242 10.0648L15.3177 10.0713C14.8707 10.5192 14.6197 11.1262 14.6197 11.759C14.6197 12.3918 14.8707 12.9988 15.3177 13.4467L15.3181 13.447C15.3957 13.5246 15.4878 13.5861 15.5892 13.628C15.6905 13.6698 15.7992 13.6913 15.9089 13.691Z" fill="#000B1F" stroke="#DAEEDD"/>
</svg>
