<svg width="53" height="53" viewBox="0 0 53 53" fill="none" xmlns="http://www.w3.org/2000/svg">
<path d="M47.3647 33.5214L47.3648 33.5214C47.2527 32.9611 46.5653 32.4944 45.8717 32.7256L45.8629 32.7285L45.8537 32.7304C45.5822 32.7847 45.3553 32.9769 45.209 33.2403C45.0632 33.5027 45.0059 33.8217 45.0618 34.1074C45.7162 36.5969 45.7154 39.0854 45.1924 41.5705M47.3647 33.5214L46.1086 42.9502C46.1094 42.9504 46.1102 42.9505 46.111 42.9506M47.3647 33.5214L47.3656 33.5252C48.0108 36.364 48.1385 39.1967 47.4954 42.0264L47.4954 42.0264L47.4946 42.0303C47.3802 42.6022 46.8061 43.0652 46.111 42.9506M47.3647 33.5214L46.111 42.9506M45.1924 41.5705C45.1923 41.5708 45.1923 41.5711 45.1922 41.5713L45.0454 41.5404L45.1925 41.5699C45.1925 41.5701 45.1924 41.5703 45.1924 41.5705ZM45.1924 41.5705C45.1373 41.8471 45.2193 42.1637 45.3974 42.4308C45.5751 42.6974 45.8352 42.8947 46.111 42.9506M39.9277 23.107L39.9279 23.1073L39.9361 23.1019C40.2751 22.8758 40.7287 22.8758 41.0678 23.1019C41.4227 23.3384 41.6501 23.6843 41.6501 24.1454V51.4063C41.6501 51.8674 41.4227 52.2132 41.0678 52.4498C40.7287 52.6758 40.2751 52.6758 39.9361 52.4498L39.9363 52.4495L39.927 52.4442L26.686 44.915L26.6515 44.8954H26.6118H22.328C19.9444 44.8954 18.0643 43.0154 18.0643 40.6317V34.4007V34.2507H17.9143H9.60623C9.25087 34.2507 8.9664 34.1329 8.77114 33.9376C8.57588 33.7424 8.45809 33.4579 8.45809 33.1025C8.45809 32.7472 8.57588 32.4627 8.77114 32.2675C8.9664 32.0722 9.25087 31.9544 9.60623 31.9544H19.3423H19.3966L19.4383 31.9196C20.1989 31.2858 21.2046 30.7861 22.328 30.7861H26.6118H26.6517L26.6863 30.7663L33.0471 27.1315L33.1227 27.0883V27.0013V10.2553V10.1053H32.9727H26.3522C25.9969 10.1053 25.7124 9.9875 25.5171 9.79224C25.3219 9.59698 25.2041 9.31251 25.2041 8.95716V2.59628V2.44628H25.0541H4.15404C3.30051 2.44628 2.44628 3.15454 2.44628 4.15404V40.1125C2.44628 40.966 3.15454 41.8203 4.15404 41.8203H13.5006C13.856 41.8203 14.1405 41.938 14.3357 42.1333C14.531 42.3286 14.6488 42.613 14.6488 42.9684C14.6488 43.3237 14.531 43.6082 14.3357 43.8035C14.1405 43.9987 13.856 44.1165 13.5006 44.1165H4.15404C2.02699 44.1165 0.15 42.3633 0.15 40.1125V4.15404C0.15 1.90024 1.90024 0.15 4.15404 0.15H26.3522C26.8093 0.15 27.0323 0.372913 27.154 0.494672L27.1548 0.495508L27.1548 0.495541L27.1576 0.498147L35.0762 8.02735L35.0856 8.03627L35.0964 8.04345C35.2506 8.14627 35.3326 8.30332 35.3756 8.46114C35.4187 8.61915 35.419 8.76446 35.419 8.82734V25.4435V25.703L35.6438 25.5735L39.9277 23.107ZM27.5004 7.5292V7.6792H27.6504H31.0255H31.3979L31.1295 7.42108L27.7543 4.17573L27.5004 3.93153V4.28386V7.5292ZM39.1292 49.3296L39.3538 49.4583V49.1995V26.3522V26.0934L39.1292 26.2221L27.5795 32.8404C27.4615 32.8992 27.3794 32.9253 27.3012 32.9384C27.2184 32.9522 27.1341 32.9525 27.0013 32.9525H22.4578C21.3364 32.9525 20.4904 33.7986 20.4904 34.9199V40.6317C20.4904 41.7531 21.3364 42.5991 22.4578 42.5991H27.0013C27.1341 42.5991 27.2184 42.5995 27.3012 42.6133C27.3794 42.6264 27.4615 42.6525 27.5795 42.7112L39.1292 49.3296ZM52.2983 43.0657L52.2977 43.0688C52.1833 43.6407 51.6092 44.1037 50.9141 43.9892C50.6383 43.9332 50.3782 43.7359 50.2005 43.4693C50.0224 43.2022 49.9404 42.8855 49.9955 42.6089C50.6484 39.4745 50.649 36.3374 49.8651 33.1995C49.8089 32.9137 49.8662 32.5942 50.0121 32.3316C50.1584 32.0682 50.3853 31.876 50.6568 31.8217C50.9435 31.7643 51.2645 31.8215 51.5282 31.968C51.7915 32.1143 51.9838 32.3412 52.0381 32.6127L52.0396 32.6201L52.0418 32.6274C53.0714 35.9736 53.0726 39.5815 52.2983 43.0657ZM8.45809 18.0441C8.45809 17.6888 8.57588 17.4043 8.77114 17.209C8.9664 17.0138 9.25087 16.896 9.60623 16.896H25.833C26.1883 16.896 26.4728 17.0138 26.668 17.209C26.8633 17.4043 26.9811 17.6888 26.9811 18.0441C26.9811 18.3995 26.8633 18.684 26.668 18.8792C26.4728 19.0745 26.1883 19.1923 25.833 19.1923H9.60623C9.03008 19.1923 8.45809 18.7306 8.45809 18.0441ZM8.45809 25.5733C8.45809 25.218 8.57588 24.9335 8.77114 24.7382C8.9664 24.543 9.25087 24.4252 9.60623 24.4252H25.833C26.1883 24.4252 26.4728 24.543 26.668 24.7382C26.8633 24.9335 26.9811 25.218 26.9811 25.5733C26.9811 25.9287 26.8633 26.2132 26.668 26.4084C26.4728 26.6037 26.1883 26.7215 25.833 26.7215H9.60623C9.03008 26.7215 8.45809 26.2598 8.45809 25.5733Z" fill="#1C8CCB" stroke="#F6FFF7" stroke-width="0.3"/>
</svg>
