<svg width="34" height="34" viewBox="0 0 34 34" fill="none" xmlns="http://www.w3.org/2000/svg">
<rect width="34" height="34" rx="17" fill="#FBB75D"/>
<path d="M25 16.5556C25.003 17.7288 24.7289 18.8861 24.2 19.9333C23.5728 21.1882 22.6086 22.2437 21.4155 22.9816C20.2223 23.7195 18.8473 24.1106 17.4444 24.1111C16.2712 24.1142 15.1139 23.8401 14.0667 23.3111L9 25L10.6889 19.9333C10.1599 18.8861 9.88583 17.7288 9.88889 16.5556C9.88943 15.1527 10.2805 13.7777 11.0184 12.5845C11.7563 11.3914 12.8118 10.4272 14.0667 9.80002C15.1139 9.27107 16.2712 8.99697 17.4444 9.00003H17.8889C19.7416 9.10224 21.4916 9.88426 22.8037 11.1963C24.1157 12.5084 24.8978 14.2584 25 16.1111V16.5556Z" fill="#880015"/>
</svg>
