<svg width="20" height="18" viewBox="0 0 20 18" fill="none" xmlns="http://www.w3.org/2000/svg">
<path d="M5.22262 18C4.18965 18.0003 3.17981 17.6953 2.32087 17.1237C1.46193 16.5521 0.792496 15.7395 0.397274 14.7887C0.00205158 13.8379 -0.101196 12.7917 0.100596 11.7825C0.302388 10.7733 0.800149 9.84632 1.5309 9.11899L9.23674 1.44132C9.36452 1.31402 9.53782 1.24251 9.71852 1.24251C9.89923 1.24251 10.0725 1.31402 10.2003 1.44132C10.3281 1.56861 10.3999 1.74126 10.3999 1.92129C10.3999 2.10131 10.3281 2.27396 10.2003 2.40125L2.49356 10.078C2.12045 10.4317 1.82218 10.8563 1.61632 11.3266C1.41046 11.797 1.30118 12.3036 1.29491 12.8167C1.28863 13.3297 1.3855 13.8389 1.5798 14.3141C1.7741 14.7893 2.0619 15.2209 2.42624 15.5836C2.79059 15.9462 3.22411 16.2326 3.70127 16.4258C4.17843 16.6189 4.68957 16.715 5.20457 16.7083C5.71958 16.7017 6.22804 16.5924 6.69999 16.3869C7.17194 16.1814 7.59783 15.8839 7.95258 15.5119L17.9061 5.59591C18.3623 5.12668 18.615 4.49763 18.6097 3.84446C18.6044 3.19129 18.3416 2.56636 17.878 2.10448C17.4144 1.64261 16.7871 1.38081 16.1314 1.37556C15.4758 1.37032 14.8444 1.62205 14.3734 2.07645L6.34693 10.078C6.24151 10.1831 6.15788 10.3077 6.10082 10.445C6.04376 10.5822 6.01439 10.7293 6.01439 10.8778C6.01439 11.0264 6.04376 11.1734 6.10082 11.3107C6.15788 11.4479 6.24151 11.5726 6.34693 11.6776C6.45236 11.7826 6.57752 11.866 6.71527 11.9228C6.85302 11.9796 7.00066 12.0089 7.14976 12.0089C7.29886 12.0089 7.4465 11.9796 7.58424 11.9228C7.72199 11.866 7.84715 11.7826 7.95258 11.6776L13.0883 6.56037C13.1511 6.49553 13.2262 6.44381 13.3093 6.4082C13.3924 6.3726 13.4818 6.35384 13.5722 6.35302C13.6626 6.35219 13.7523 6.36932 13.8361 6.4034C13.9198 6.43748 13.9959 6.48783 14.0598 6.55151C14.1238 6.61519 14.1744 6.69093 14.2087 6.7743C14.243 6.85768 14.2603 6.94702 14.2596 7.03712C14.2588 7.12722 14.2401 7.21627 14.2044 7.29907C14.1687 7.38188 14.1169 7.45678 14.0519 7.5194L8.91525 12.6376C8.68334 12.8686 8.40801 13.052 8.10499 13.1771C7.80197 13.3021 7.47718 13.3665 7.14917 13.3666C6.82116 13.3666 6.49636 13.3023 6.1933 13.1773C5.89025 13.0523 5.61488 12.869 5.38291 12.638C5.15094 12.407 4.96693 12.1327 4.84136 11.8308C4.7158 11.5289 4.65115 11.2054 4.65111 10.8786C4.65103 10.2186 4.9141 9.5857 5.38245 9.11899L13.4107 1.12647C14.1345 0.405287 15.1162 8.48497e-05 16.1399 1.33242e-08C17.1636 -8.48231e-05 18.1454 0.404955 18.8693 1.12602C19.5932 1.84708 19.9999 2.82509 20 3.84491C20.0001 4.86473 19.5935 5.84281 18.8697 6.56399L8.91615 16.4764C8.43216 16.961 7.85652 17.3451 7.22254 17.6067C6.58855 17.8682 5.9088 18.0019 5.22262 18Z" fill="#880015"/>
</svg>
