<svg width="50" height="58" viewBox="0 0 50 58" fill="none" xmlns="http://www.w3.org/2000/svg">
<path d="M25 30.4316C16.7083 30.4316 9.95921 23.6825 9.95921 15.3908C9.95921 7.09908 16.7083 0.35 25 0.35C33.2917 0.35 40.0408 7.09908 40.0408 15.3908C40.0408 23.6825 33.2917 30.4316 25 30.4316ZM25 3.66499C18.5433 3.66499 13.2742 8.93411 13.2742 15.3908C13.2742 21.8475 18.5433 27.1166 25 27.1166C31.4567 27.1166 36.7258 21.8475 36.7258 15.3908C36.7258 8.93411 31.4567 3.66499 25 3.66499ZM47.9925 57.1982C47.0884 57.1982 46.335 56.4448 46.335 55.5407C46.335 46.0429 36.6781 38.4616 25 38.4616C13.3219 38.4616 3.66499 46.0429 3.66499 55.5407C3.66499 56.4448 2.91163 57.1982 2.00749 57.1982C1.10336 57.1982 0.35 56.4448 0.35 55.5407C0.35 44.3629 11.3446 35.1466 25 35.1466C38.6554 35.1466 49.65 44.3629 49.65 55.5407C49.65 56.4448 48.8966 57.1982 47.9925 57.1982Z" fill="#880015" stroke="#FFF3F5" stroke-width="0.7"/>
</svg>
