<svg width="60" height="60" viewBox="0 0 60 60" fill="none" xmlns="http://www.w3.org/2000/svg">
<path d="M55.625 59.75H4.375C2.10057 59.75 0.25 57.8994 0.25 55.625V49.375C0.25 47.1006 2.10057 45.25 4.375 45.25H55.625C57.8994 45.25 59.75 47.1006 59.75 49.375V55.625C59.75 57.8994 57.8994 59.75 55.625 59.75ZM3.75628 48.7563L3.93306 48.9331L3.75628 48.7563C3.59219 48.9204 3.5 49.1429 3.5 49.375V55.625C3.5 56.1081 3.89193 56.5 4.375 56.5H55.625C55.8571 56.5 56.0796 56.4078 56.2437 56.2437C56.4078 56.0796 56.5 55.8571 56.5 55.625V49.375C56.5 49.1429 56.4078 48.9204 56.2437 48.7563C56.0796 48.5922 55.8571 48.5 55.625 48.5H4.375C4.14294 48.5 3.92038 48.5922 3.75628 48.7563Z" fill="#880015" stroke="white" stroke-width="0.5"/>
<path d="M45.625 47.875C45.194 47.875 44.7807 47.7038 44.476 47.3991C44.1712 47.0943 44 46.681 44 46.25V35C44 27.2794 37.718 21 30 21C22.282 21 16 27.2794 16 35V46.25C16 46.681 15.8288 47.0943 15.524 47.3991C15.2193 47.7038 14.806 47.875 14.375 47.875C13.944 47.875 13.5307 47.7038 13.226 47.3991C12.9212 47.0943 12.75 46.681 12.75 46.25V35C12.75 25.4881 20.4905 17.75 30 17.75C39.5095 17.75 47.25 25.4881 47.25 35V46.25C47.25 46.681 47.0788 47.0943 46.7741 47.3991C46.4693 47.7038 46.056 47.875 45.625 47.875Z" fill="#880015" stroke="white" stroke-width="0.5"/>
<path d="M30 28.5H29.9997C28.2765 28.5021 26.6245 29.1875 25.406 30.406C24.1875 31.6245 23.5021 33.2765 23.5 34.9997V35C23.5 35.431 23.3288 35.8443 23.024 36.149C22.7193 36.4538 22.306 36.625 21.875 36.625C21.444 36.625 21.0307 36.4538 20.726 36.149C20.4212 35.8443 20.25 35.431 20.25 35C20.25 29.6231 24.6231 25.25 30 25.25C30.431 25.25 30.8443 25.4212 31.149 25.726C31.4538 26.0307 31.625 26.444 31.625 26.875C31.625 27.306 31.4538 27.7193 31.149 28.024C30.8443 28.3288 30.431 28.5 30 28.5ZM44.3756 17.25H44.3749C44.0533 17.2501 43.7388 17.1548 43.4714 16.9762C43.2039 16.7975 42.9956 16.5435 42.8726 16.2463C42.7496 15.9491 42.7176 15.622 42.7806 15.3066C42.8436 14.9912 42.9988 14.7016 43.2266 14.4745L43.2268 14.4743L49.4143 8.28678C49.7191 7.98192 50.1326 7.81065 50.5638 7.81065C50.9949 7.81065 51.4084 7.98192 51.7132 8.28678C52.0181 8.59164 52.1894 9.00511 52.1894 9.43625C52.1894 9.86737 52.0181 10.2808 51.7133 10.5857C51.7132 10.5857 51.7132 10.5857 51.7132 10.5857L45.5233 16.7732L45.5225 16.7739C45.3724 16.9253 45.1937 17.0453 44.9968 17.127C44.7999 17.2087 44.5888 17.2505 44.3756 17.25ZM15.6248 17.25H15.6244C15.4112 17.2505 15.2001 17.2087 15.0032 17.127C14.8063 17.0453 14.6276 16.9253 14.4775 16.7739L14.4768 16.7732L8.28928 10.5857C7.98442 10.2809 7.81315 9.86739 7.81315 9.43625C7.81315 9.00511 7.98442 8.59164 8.28928 8.28678C8.59414 7.98192 9.00761 7.81065 9.43875 7.81065C9.86985 7.81065 10.2833 7.98189 10.5882 8.28671C10.5882 8.28673 10.5882 8.28675 10.5882 8.28678L16.7731 14.4767C17.0001 14.7039 17.1546 14.9933 17.2172 15.3084C17.2798 15.6234 17.2476 15.9499 17.1247 16.2467C17.0019 16.5434 16.7938 16.7971 16.5268 16.9757C16.2599 17.1543 15.946 17.2497 15.6248 17.25ZM30 12.25C29.569 12.25 29.1557 12.0788 28.851 11.774C28.5462 11.4693 28.375 11.056 28.375 10.625V1.875C28.375 1.44402 28.5462 1.0307 28.851 0.725952C29.1557 0.421205 29.569 0.25 30 0.25C30.431 0.25 30.8443 0.421205 31.149 0.725952C31.4538 1.0307 31.625 1.44402 31.625 1.875V10.625C31.625 11.056 31.4538 11.4693 31.149 11.774C30.8443 12.0788 30.431 12.25 30 12.25ZM5.625 31.625H1.875C1.44402 31.625 1.0307 31.4538 0.725952 31.149C0.421205 30.8443 0.25 30.431 0.25 30C0.25 29.569 0.421205 29.1557 0.725952 28.851C1.0307 28.5462 1.44402 28.375 1.875 28.375H5.625C6.05598 28.375 6.4693 28.5462 6.77405 28.851C7.0788 29.1557 7.25 29.569 7.25 30C7.25 30.431 7.0788 30.8443 6.77405 31.149C6.4693 31.4538 6.05598 31.625 5.625 31.625ZM58.125 31.625H54.375C53.944 31.625 53.5307 31.4538 53.2259 31.149C52.9212 30.8443 52.75 30.431 52.75 30C52.75 29.569 52.9212 29.1557 53.2259 28.851C53.5307 28.5462 53.944 28.375 54.375 28.375H58.125C58.556 28.375 58.9693 28.5462 59.2741 28.851C59.5788 29.1557 59.75 29.569 59.75 30C59.75 30.431 59.5788 30.8443 59.2741 31.149C58.9693 31.4538 58.556 31.625 58.125 31.625Z" fill="#880015" stroke="white" stroke-width="0.5"/>
</svg>
