<svg width="72" height="59" viewBox="0 0 72 59" fill="none" xmlns="http://www.w3.org/2000/svg">
<path d="M70.8 28.2H55.1172C54.179 14.3766 53.7929 0 47.8202 0C44.3578 0 43.0816 5.25045 42.3567 9.8247C41.5551 14.8824 41.1492 21.5966 40.7758 28.2H31.2245C31.014 24.4772 30.7913 20.6826 30.4971 17.232C30.4838 17.0749 30.4397 16.922 30.3673 16.7821C30.2949 16.6421 30.1955 16.5177 30.075 16.4161C29.9545 16.3146 29.8151 16.2377 29.6649 16.1901C29.5147 16.1424 29.3565 16.1248 29.1994 16.1384C28.8823 16.1654 28.589 16.3172 28.3838 16.5606C28.1787 16.8039 28.0786 17.1187 28.1057 17.4359C28.3935 20.812 28.6134 24.5376 28.8206 28.2H19.2885C19.7057 22.0308 20.1176 14.2128 21.0822 8.9856C22.179 3.0417 23.6142 2.4 24.1803 2.4C24.6623 2.4 26.3256 3.07215 27.4959 11.7218C27.541 12.035 27.708 12.3179 27.9606 12.5086C28.2132 12.6993 28.5309 12.7825 28.8446 12.7401C29.1582 12.6977 29.4424 12.533 29.6353 12.282C29.8281 12.031 29.914 11.714 29.8742 11.4C29.1114 5.7627 27.8385 0 24.1803 0C20.7021 0 19.3994 4.87965 18.7221 8.55C17.7411 13.8651 17.3556 21.2375 16.8831 28.2H1.2C0.88174 28.2 0.576516 28.3264 0.351472 28.5515C0.126428 28.7765 0 29.0817 0 29.4C0 29.7183 0.126428 30.0235 0.351472 30.2485C0.576516 30.4736 0.88174 30.6 1.2 30.6H16.7139C16.4099 34.736 16.0392 38.7006 15.4583 41.8484C14.3613 47.7921 12.9263 48.4338 12.3602 48.4338C11.2545 48.4338 10.4447 46.3968 10.0602 45.1826C9.3687 42.998 8.84265 39.8813 8.40495 35.3742C8.38979 35.2173 8.34386 35.065 8.26978 34.9259C8.19571 34.7867 8.09494 34.6636 7.97324 34.5634C7.85154 34.4633 7.7113 34.3881 7.56053 34.3422C7.40976 34.2963 7.25141 34.2805 7.09455 34.2959C6.7778 34.3267 6.48625 34.482 6.28403 34.7278C6.08181 34.9735 5.98547 35.2895 6.0162 35.6063C6.47055 40.2848 7.02855 43.5579 7.7721 45.9069C8.15775 47.1255 9.33165 50.8338 12.36 50.8338C15.8381 50.8338 17.1408 45.9543 17.8182 42.2838C18.4275 38.9818 18.8087 34.8685 19.1201 30.5998H28.9556C29.8469 46.3665 30.6603 58.7999 35.9997 58.7999C39.462 58.7999 40.7382 53.5494 41.4632 48.9752C43.146 38.3564 43.0692 20.6607 44.7267 10.2002C45.8742 2.9625 47.3844 2.4 47.8202 2.4C48.3861 2.4 49.8213 3.0417 50.9181 8.98545C51.8831 14.2136 52.2827 21.8521 52.7117 28.2H48.9435C48.6252 28.2 48.32 28.3264 48.095 28.5515C47.8699 28.7765 47.7435 29.0817 47.7435 29.4C47.7435 29.7183 47.8699 30.0235 48.095 30.2485C48.32 30.4736 48.6252 30.6 48.9435 30.6H52.8797C53.1911 34.8686 53.5722 38.9819 54.1817 42.284C54.8591 45.9543 56.1617 50.834 59.6399 50.834C62.84 50.834 64.1148 46.8035 64.7955 43.7717C65.6067 40.158 66.054 35.3601 66.4002 30.6H70.8C71.1183 30.6 71.4235 30.4736 71.6485 30.2485C71.8736 30.0235 72 29.7183 72 29.4C72 29.0817 71.8736 28.7765 71.6485 28.5515C71.4235 28.3264 71.1183 28.2 70.8 28.2ZM36.0002 56.4C35.5646 56.4 34.0542 55.8375 32.9072 48.5997C32.1292 43.6916 31.7276 37.1 31.3598 30.6H40.6406C40.2728 37.1 39.8709 43.6914 39.0932 48.5997C37.9461 55.8375 36.4358 56.4 36.0002 56.4ZM62.4536 43.2459C60.8037 50.5953 58.0721 50.1405 56.5418 41.8485C55.9608 38.7009 55.5902 34.7361 55.2863 30.6002H63.9936C63.6561 35.2085 63.2222 39.8232 62.4536 43.2459Z" fill="#880015"/>
</svg>
